<svg xmlns="http://www.w3.org/2000/svg" width="24" height="24" viewBox="0 0 24 24" fill="none">
    <path d="M13.0002 6.08891C13.8699 6.23684 14.6963 6.57471 15.4204 7.07846C16.1446 7.58221 16.7488 8.23946 17.19 9.00338C17.6311 9.7673 17.8984 10.6191 17.9728 11.4981C18.0472 12.3771 17.9268 13.2617 17.6203 14.0889L20.0903 15.5189C20.2168 15.5939 20.3584 15.64 20.5048 15.654C20.6513 15.668 20.799 15.6495 20.9375 15.5999C21.076 15.5502 21.2018 15.4706 21.306 15.3667C21.4102 15.2628 21.4902 15.1373 21.5403 14.9989C21.8499 14.0292 22.0051 13.0168 22.0002 11.9989C21.9996 9.73129 21.2283 7.5312 19.8128 5.75959C18.3974 3.98798 16.4218 2.75006 14.2102 2.24891C14.0626 2.21716 13.9096 2.21926 13.7629 2.25509C13.6161 2.29091 13.4794 2.35951 13.363 2.45574C13.2465 2.55197 13.1534 2.67333 13.0906 2.8107C13.0278 2.94807 12.9969 3.0979 13.0002 3.24891V6.08891Z" fill="#232F6A"/>
    <path opacity="0.3" d="M19.0801 17.2494C19.2104 17.3232 19.3225 17.4253 19.4081 17.5481C19.4937 17.671 19.5506 17.8116 19.5746 17.9594C19.5986 18.1072 19.5891 18.2586 19.5468 18.4022C19.5044 18.5459 19.4304 18.6782 19.3301 18.7894C18.3941 19.798 17.2599 20.6026 15.9987 21.1529C14.7374 21.7031 13.3762 21.9871 12.0001 21.9871C10.6241 21.9871 9.2628 21.7031 8.00154 21.1529C6.74028 20.6026 5.60614 19.798 4.67011 18.7894C4.56981 18.6782 4.49577 18.5459 4.45346 18.4022C4.41114 18.2586 4.40163 18.1072 4.42563 17.9594C4.44962 17.8116 4.50652 17.671 4.5921 17.5481C4.67769 17.4253 4.78978 17.3232 4.92011 17.2494L7.38011 15.8194C7.94312 16.4988 8.64906 17.0457 9.44762 17.4211C10.2462 17.7965 11.1177 17.9911 12.0001 17.9911C12.8825 17.9911 13.754 17.7965 14.5526 17.4211C15.3512 17.0457 16.0571 16.4988 16.6201 15.8194L19.0801 17.2494ZM6.38011 14.0894C6.07357 13.2622 5.9532 12.3776 6.02757 11.4986C6.10194 10.6196 6.36923 9.76777 6.81039 9.00385C7.25156 8.23993 7.85574 7.58268 8.57992 7.07893C9.3041 6.57518 10.1304 6.23731 11.0001 6.08938V3.22938C11.0035 3.07836 10.9726 2.92854 10.9098 2.79117C10.847 2.65379 10.7538 2.53244 10.6374 2.43621C10.521 2.33998 10.3842 2.27137 10.2375 2.23555C10.0907 2.19973 9.93779 2.19762 9.79011 2.22938C7.5752 2.73128 5.59711 3.97217 4.18127 5.74787C2.76543 7.52357 1.99619 9.72833 2.00011 11.9994C1.99524 13.0173 2.15047 14.0297 2.46011 14.9994C2.50695 15.1403 2.58459 15.269 2.68739 15.3762C2.79018 15.4834 2.91556 15.5663 3.05441 15.619C3.19326 15.6716 3.34209 15.6927 3.49011 15.6807C3.63812 15.6686 3.78159 15.6238 3.91011 15.5494L6.38011 14.0894Z" fill="#232F6A"/>
</svg>
