<svg width="24" height="24" viewBox="0 0 24 24" fill="none" xmlns="http://www.w3.org/2000/svg">
<path opacity="0.3" d="M21.2501 18.5173L13.0001 21.7973C12.3399 22.0674 11.6002 22.0674 10.9401 21.7973L2.75006 18.5173C2.52686 18.4285 2.33545 18.2748 2.2006 18.076C2.06574 17.8772 1.99365 17.6425 1.99365 17.4023C1.99365 17.1621 2.06574 16.9274 2.2006 16.7286C2.33545 16.5299 2.52686 16.3761 2.75006 16.2873L4.00006 15.7773L10.1901 18.2573C11.3334 18.7106 12.6067 18.7106 13.7501 18.2573L20.0001 15.7773L21.2801 16.2873C21.5021 16.3791 21.6915 16.5354 21.8237 16.736C21.9559 16.9366 22.0249 17.1723 22.0217 17.4125C22.0184 17.6527 21.9431 17.8865 21.8056 18.0834C21.668 18.2804 21.4745 18.4316 21.2501 18.5173ZM13.0001 16.3973L21.2201 13.1073C21.4402 13.0169 21.6284 12.8631 21.7609 12.6655C21.8934 12.4678 21.9641 12.2353 21.9641 11.9973C21.9641 11.7594 21.8934 11.5268 21.7609 11.3292C21.6284 11.1315 21.4402 10.9777 21.2201 10.8873L13.0001 7.59732C12.3558 7.35298 11.6443 7.35298 11.0001 7.59732L2.75006 10.8873C2.52997 10.9777 2.34172 11.1315 2.20924 11.3292C2.07675 11.5268 2.00602 11.7594 2.00602 11.9973C2.00602 12.2353 2.07675 12.4678 2.20924 12.6655C2.34172 12.8631 2.52997 13.0169 2.75006 13.1073L11.0001 16.3973C11.6443 16.6417 12.3558 16.6417 13.0001 16.3973Z" fill="#232F6A"/>
<path d="M11.0001 10.9983L2.75006 7.70831C2.52686 7.61951 2.33545 7.46577 2.2006 7.26699C2.06574 7.0682 1.99365 6.83352 1.99365 6.59331C1.99365 6.3531 2.06574 6.11841 2.2006 5.91963C2.33545 5.72084 2.52686 5.5671 2.75006 5.47831L11.0001 2.19831C11.6425 1.94431 12.3576 1.94431 13.0001 2.19831L21.2201 5.47831C21.4433 5.5671 21.6347 5.72084 21.7695 5.91963C21.9044 6.11841 21.9765 6.3531 21.9765 6.59331C21.9765 6.83352 21.9044 7.0682 21.7695 7.26699C21.6347 7.46577 21.4433 7.61951 21.2201 7.70831L13.0001 10.9983C12.3558 11.2427 11.6443 11.2427 11.0001 10.9983Z" fill="#232F6A"/>
</svg>
