<svg width="24" height="24" viewBox="0 0 24 24" fill="none" xmlns="http://www.w3.org/2000/svg">
<path d="M12.9999 22H10.9999C10.7347 22 10.4803 21.8947 10.2928 21.7071C10.1052 21.5196 9.99987 21.2653 9.99987 21V18C9.99987 17.7348 10.1052 17.4805 10.2928 17.2929C10.4803 17.1054 10.7347 17 10.9999 17H12.9999C13.2651 17 13.5194 17.1054 13.707 17.2929C13.8945 17.4805 13.9999 17.7348 13.9999 18V21C13.9999 21.2653 13.8945 21.5196 13.707 21.7071C13.5194 21.8947 13.2651 22 12.9999 22ZM18.1999 10.73L20.7899 9.23003C21.0186 9.09812 21.1859 8.88108 21.2552 8.6263C21.3245 8.37151 21.2902 8.09965 21.1599 7.87003L20.1599 6.13004C20.0937 6.01628 20.0057 5.91671 19.901 5.83702C19.7963 5.75733 19.6769 5.69909 19.5496 5.66565C19.4223 5.6322 19.2897 5.62421 19.1593 5.64212C19.029 5.66003 18.9034 5.7035 18.7899 5.77004L16.1999 7.27004C15.9711 7.40195 15.8039 7.61898 15.7345 7.87377C15.6652 8.12856 15.6995 8.40042 15.8299 8.63004L16.8299 10.37C16.896 10.4838 16.984 10.5834 17.0887 10.6631C17.1934 10.7427 17.3129 10.801 17.4401 10.8344C17.5674 10.8679 17.7 10.8759 17.8304 10.858C17.9608 10.84 18.0863 10.7966 18.1999 10.73ZM7.79987 7.27004L5.20987 5.77004C5.09633 5.7035 4.97078 5.66003 4.84041 5.64212C4.71004 5.62421 4.57741 5.6322 4.45014 5.66565C4.32287 5.69909 4.20344 5.75733 4.09872 5.83702C3.994 5.91671 3.90603 6.01628 3.83987 6.13004L2.83987 7.87003C2.7095 8.09965 2.67523 8.37151 2.74455 8.6263C2.81386 8.88108 2.98114 9.09812 3.20987 9.23003L5.79987 10.73C5.91341 10.7966 6.03896 10.84 6.16933 10.858C6.2997 10.8759 6.43232 10.8679 6.5596 10.8344C6.68687 10.801 6.8063 10.7427 6.91102 10.6631C7.01574 10.5834 7.10371 10.4838 7.16987 10.37L8.16987 8.63004C8.30024 8.40042 8.33451 8.12856 8.26519 7.87377C8.19587 7.61898 8.0286 7.40195 7.79987 7.27004Z" fill="#232F6A"/>
<path d="M12.9999 7H10.9999C10.7347 7 10.4803 6.89464 10.2928 6.70711C10.1052 6.51957 9.99987 6.26522 9.99987 6V3C9.99987 2.73478 10.1052 2.48043 10.2928 2.29289C10.4803 2.10536 10.7347 2 10.9999 2H12.9999C13.2651 2 13.5194 2.10536 13.707 2.29289C13.8945 2.48043 13.9999 2.73478 13.9999 3V6C13.9999 6.26522 13.8945 6.51957 13.707 6.70711C13.5194 6.89464 13.2651 7 12.9999 7ZM5.20987 18.23L7.79987 16.73C8.0286 16.5981 8.19587 16.3811 8.26519 16.1263C8.33451 15.8715 8.30024 15.5996 8.16987 15.37L7.16987 13.63C7.10371 13.5162 7.01574 13.4167 6.91102 13.337C6.8063 13.2573 6.68687 13.1991 6.5596 13.1656C6.43232 13.1322 6.2997 13.1242 6.16933 13.1421C6.03896 13.16 5.91341 13.2035 5.79987 13.27L3.20987 14.77C2.98114 14.9019 2.81386 15.1189 2.74455 15.3737C2.67523 15.6285 2.7095 15.9004 2.83987 16.13L3.83987 17.87C3.90603 17.9838 3.994 18.0833 4.09872 18.163C4.20344 18.2427 4.32287 18.3009 4.45014 18.3344C4.57741 18.3678 4.71004 18.3758 4.84041 18.3579C4.97078 18.34 5.09633 18.2965 5.20987 18.23ZM20.7899 14.77L18.1999 13.27C18.0863 13.2035 17.9608 13.16 17.8304 13.1421C17.7 13.1242 17.5674 13.1322 17.4401 13.1656C17.3129 13.1991 17.1934 13.2573 17.0887 13.337C16.984 13.4167 16.896 13.5162 16.8299 13.63L15.8299 15.37C15.6995 15.5996 15.6652 15.8715 15.7345 16.1263C15.8039 16.3811 15.9711 16.5981 16.1999 16.73L18.7899 18.23C18.9034 18.2965 19.029 18.34 19.1593 18.3579C19.2897 18.3758 19.4223 18.3678 19.5496 18.3344C19.6769 18.3009 19.7963 18.2427 19.901 18.163C20.0057 18.0833 20.0937 17.9838 20.1599 17.87L21.1599 16.13C21.2902 15.9004 21.3245 15.6285 21.2552 15.3737C21.1859 15.1189 21.0186 14.9019 20.7899 14.77Z" fill="#232F6A"/>
</svg>
