<svg width="20" height="20" viewBox="0 0 20 20" fill="none" xmlns="http://www.w3.org/2000/svg">
<path d="M10 12.5C11.7259 12.5 13.125 11.1009 13.125 9.375C13.125 7.64911 11.7259 6.25 10 6.25C8.27411 6.25 6.875 7.64911 6.875 9.375C6.875 11.1009 8.27411 12.5 10 12.5Z" stroke="black" stroke-miterlimit="10"/>
<path d="M4.98438 15.5761C5.45516 14.6505 6.17291 13.8732 7.05815 13.3303C7.94339 12.7874 8.9616 12.5 10.0001 12.5C11.0385 12.5 12.0567 12.7874 12.942 13.3303C13.8272 13.8732 14.545 14.6505 15.0158 15.5761" stroke="black" stroke-linecap="round" stroke-linejoin="round"/>
<path d="M15.625 5.625C16.3154 5.625 16.875 5.06536 16.875 4.375C16.875 3.68464 16.3154 3.125 15.625 3.125C14.9346 3.125 14.375 3.68464 14.375 4.375C14.375 5.06536 14.9346 5.625 15.625 5.625Z" stroke="black" stroke-linecap="round" stroke-linejoin="round"/>
<path d="M15.625 3.125V2.1875" stroke="black" stroke-linecap="round" stroke-linejoin="round"/>
<path d="M14.5424 3.75L13.7305 3.28125" stroke="black" stroke-linecap="round" stroke-linejoin="round"/>
<path d="M14.5424 5L13.7305 5.46875" stroke="black" stroke-linecap="round" stroke-linejoin="round"/>
<path d="M15.625 5.625V6.5625" stroke="black" stroke-linecap="round" stroke-linejoin="round"/>
<path d="M16.707 5L17.5189 5.46875" stroke="black" stroke-linecap="round" stroke-linejoin="round"/>
<path d="M16.707 3.75L17.5189 3.28125" stroke="black" stroke-linecap="round" stroke-linejoin="round"/>
</svg>
