<svg width="14" height="14" viewBox="0 0 14 14" fill="none" xmlns="http://www.w3.org/2000/svg">
<path d="M1.16797 3.35156C1.16797 3.10994 1.36384 2.91406 1.60547 2.91406H12.3971C12.6387 2.91406 12.8346 3.10994 12.8346 3.35156C12.8346 3.59318 12.6387 3.78906 12.3971 3.78906H1.60547C1.36384 3.78906 1.16797 3.59318 1.16797 3.35156ZM1.16797 7.14323C1.16797 6.90161 1.36384 6.70573 1.60547 6.70573H12.3971C12.6387 6.70573 12.8346 6.90161 12.8346 7.14323C12.8346 7.38485 12.6387 7.58073 12.3971 7.58073H1.60547C1.36384 7.58073 1.16797 7.38485 1.16797 7.14323ZM11.0846 10.9349C11.0846 10.6933 11.2805 10.4974 11.5221 10.4974H12.3971C12.6387 10.4974 12.8346 10.6933 12.8346 10.9349C12.8346 11.1765 12.6387 11.3724 12.3971 11.3724H11.5221C11.2805 11.3724 11.0846 11.1765 11.0846 10.9349Z" fill="#232F6A"/>
<path d="M1.4107 10.9304C1.53358 10.8485 1.6525 10.7554 1.76497 10.6537V12.9793C1.76497 13.2209 1.96085 13.4168 2.20247 13.4168C2.4441 13.4168 2.63997 13.2209 2.63997 12.9793V9.18758C2.63997 8.95775 2.46277 8.76933 2.23755 8.75148C2.02244 8.73369 1.8221 8.87743 1.77471 9.09408C1.70086 9.43165 1.37121 9.90508 0.925335 10.2024C0.724289 10.3364 0.669963 10.608 0.803996 10.8091C0.938022 11.0101 1.20965 11.0644 1.4107 10.9304Z" fill="#232F6A"/>
<path d="M4.66797 10.2216C4.66797 9.91375 4.92669 9.625 5.243 9.625C5.48051 9.625 5.6717 9.73636 5.76414 9.87846C5.84341 10.0003 5.89095 10.2082 5.70956 10.517C5.62234 10.6655 5.49049 10.7983 5.31198 10.9393C5.22305 11.0095 5.1279 11.0777 5.02443 11.1509L4.98139 11.1813C4.89259 11.2439 4.79753 11.3109 4.7057 11.3801C4.27193 11.7065 3.79297 12.1646 3.79297 12.9792C3.79297 13.2208 3.98884 13.4167 4.23047 13.4167H4.23523H4.24001H6.24328C6.4849 13.4167 6.68078 13.2208 6.68078 12.9792C6.68078 12.7375 6.4849 12.5417 6.24328 12.5417H4.77743C4.87122 12.3773 5.02415 12.2355 5.23184 12.0792C5.31203 12.0189 5.3948 11.9604 5.4842 11.8974L5.52946 11.8654C5.63364 11.7918 5.74548 11.7119 5.85432 11.626C6.07132 11.4546 6.29806 11.2426 6.46402 10.9602C6.78888 10.4073 6.78269 9.83967 6.49762 9.40135C6.22567 8.98333 5.74187 8.75 5.243 8.75C4.38109 8.75 3.79297 9.49532 3.79297 10.2216C3.79297 10.4632 3.98884 10.6591 4.23047 10.6591C4.47209 10.6591 4.66797 10.4632 4.66797 10.2216Z" fill="#232F6A"/>
<path d="M8.44035 9.99699C8.45902 9.93154 8.50352 9.83885 8.58671 9.76552C8.66161 9.69943 8.79408 9.625 9.04048 9.625C9.48457 9.625 9.62382 9.91678 9.62382 10.0493C9.62382 10.1922 9.59331 10.3354 9.5131 10.4362C9.44818 10.518 9.29225 10.6458 8.87033 10.6458C8.62871 10.6458 8.43283 10.8417 8.43283 11.0833C8.43283 11.3249 8.62871 11.5208 8.87033 11.5208C9.02987 11.5208 9.25031 11.5421 9.41539 11.6195C9.49233 11.6555 9.54052 11.6961 9.56968 11.7371C9.59582 11.7738 9.62382 11.8341 9.62382 11.9451C9.62382 12.2296 9.53503 12.3554 9.46013 12.4186C9.37199 12.4931 9.22948 12.5417 9.04048 12.5417C8.82932 12.5417 8.70979 12.5051 8.63653 12.4587C8.57154 12.4176 8.4967 12.3397 8.43522 12.153C8.35973 11.9235 8.1124 11.7987 7.88292 11.8742C7.65337 11.9497 7.52854 12.197 7.60408 12.4265C7.71276 12.7569 7.89312 13.0237 8.16846 13.198C8.43539 13.367 8.74123 13.4167 9.04048 13.4167C9.3619 13.4167 9.72987 13.3361 10.0245 13.0873C10.3324 12.8274 10.4988 12.4361 10.4988 11.9451C10.4988 11.6682 10.4231 11.427 10.2823 11.2294C10.2364 11.165 10.1856 11.108 10.1318 11.0576C10.1549 11.0329 10.177 11.0072 10.1981 10.9807C10.4535 10.6593 10.4988 10.2854 10.4988 10.0493C10.4988 9.42334 9.95754 8.75 9.04048 8.75C8.594 8.75 8.25217 8.89385 8.00787 9.10933C7.77191 9.31747 7.65244 9.56947 7.59895 9.75678C7.53262 9.98912 7.6672 10.2313 7.89954 10.2976C8.13188 10.3639 8.37402 10.2293 8.44035 9.99699Z" fill="#232F6A"/>
</svg>
