<svg xmlns="http://www.w3.org/2000/svg" width="14" height="17" viewBox="0 0 14 17" fill="none">
    <path fill-rule="evenodd" clip-rule="evenodd" d="M4.57665 0.822386C4.71304 0.686 4.89802 0.609375 5.09091 0.609375H10.9091C12.1141 0.609375 13.0909 1.58621 13.0909 2.79119V14.4276C13.0909 15.6326 12.1141 16.6094 10.9091 16.6094H2.18182C0.976836 16.6094 0 15.6326 0 14.4276V5.70028C0 5.5074 0.0766255 5.32241 0.213011 5.18602L4.57665 0.822386ZM10.9091 2.06392H5.81818V5.70028C5.81818 6.10194 5.49258 6.42756 5.09091 6.42756H1.45455V14.4276C1.45455 14.8292 1.78016 15.1548 2.18182 15.1548H10.9091C11.3108 15.1548 11.6364 14.8292 11.6364 14.4276V2.79119C11.6364 2.38953 11.3108 2.06392 10.9091 2.06392ZM2.48306 4.97301H4.36364V3.09244L2.48306 4.97301ZM2.90909 9.33665C2.90909 8.93497 3.23471 8.60937 3.63636 8.60937H9.45455C9.85622 8.60937 10.1818 8.93497 10.1818 9.33665C10.1818 9.73832 9.85622 10.0639 9.45455 10.0639H3.63636C3.23471 10.0639 2.90909 9.73832 2.90909 9.33665ZM2.90909 12.2457C2.90909 11.8441 3.23471 11.5185 3.63636 11.5185H9.45455C9.85622 11.5185 10.1818 11.8441 10.1818 12.2457C10.1818 12.6474 9.85622 12.973 9.45455 12.973H3.63636C3.23471 12.973 2.90909 12.6474 2.90909 12.2457Z" fill="#232F6A"/>
</svg>
