<svg xmlns="http://www.w3.org/2000/svg" width="18" height="16" viewBox="0 0 18 16" fill="none">
    <path d="M17.9026 15.309C17.8272 15.4266 17.7521 15.5299 17.6631 15.647C17.6368 15.6675 17.6309 15.6778 17.619 15.6961C17.3864 15.8942 17.1224 15.9808 16.8311 16C15.5019 15.9978 14.1728 15.994 12.8437 15.9937C8.98935 15.993 5.135 15.9909 1.28066 15.9992C0.993852 15.9998 0.74968 15.9285 0.49787 15.777C0.480776 15.7665 0.464228 15.7646 0.464228 15.7646C0.308007 15.6567 0.181918 15.5258 0.115455 15.3189C0.0759793 15.1933 0.0463539 15.091 0.0167286 14.9886C0.0153442 11.546 0.0132325 8.10339 0.0160074 4.66079C0.0160925 4.55509 0.0669667 4.44943 0.109404 4.32547C0.145846 4.2864 0.167046 4.2656 0.203644 4.24211C0.334942 4.22009 0.450841 4.20077 0.582963 4.18699C0.690041 4.18884 0.780894 4.18516 0.884319 4.18699C0.91446 4.18883 0.932031 4.18515 0.965735 4.187C1.07246 4.18885 1.16305 4.18516 1.26619 4.18699C1.2963 4.18883 1.31385 4.18515 1.34753 4.187C1.45425 4.18885 1.54484 4.18516 1.64798 4.18699C1.67808 4.18883 1.69563 4.18515 1.72951 4.18701C1.84899 4.18885 1.95213 4.18516 2.06784 4.18699C2.09798 4.18883 2.11555 4.18515 2.14926 4.187C2.25598 4.18885 2.34657 4.18516 2.44972 4.18699C2.47982 4.18883 2.49737 4.18515 2.53105 4.187C2.63777 4.18885 2.72836 4.18516 2.8315 4.18699C2.8616 4.18883 2.87915 4.18515 2.91283 4.187C3.01955 4.18885 3.11014 4.18516 3.21328 4.18699C3.24338 4.18883 3.26093 4.18515 3.29482 4.187C3.41429 4.18885 3.51743 4.18516 3.63314 4.18699C3.66329 4.18883 3.68086 4.18515 3.71456 4.187C3.82128 4.18885 3.91187 4.18516 4.01502 4.18699C4.04512 4.18883 4.06267 4.18515 4.09635 4.187C4.20307 4.18885 4.29366 4.18516 4.3968 4.18699C4.4269 4.18883 4.44445 4.18515 4.47813 4.187C4.58485 4.18884 4.67544 4.18516 4.77858 4.18699C4.80868 4.18883 4.82623 4.18515 4.86012 4.187C4.97959 4.18885 5.08273 4.18516 5.19845 4.18699C5.22859 4.18883 5.24616 4.18515 5.27986 4.187C5.38659 4.18885 5.47718 4.18516 5.58032 4.18699C5.61042 4.18883 5.62797 4.18515 5.66165 4.187C5.76838 4.18884 5.85896 4.18516 5.9621 4.18699C5.9922 4.18883 6.00975 4.18515 6.04343 4.187C6.15016 4.18884 6.24075 4.18516 6.34389 4.18699C6.37399 4.18883 6.39153 4.18515 6.42542 4.187C6.5449 4.18885 6.64804 4.18516 6.76375 4.18699C6.79389 4.18883 6.81146 4.18515 6.84516 4.187C6.95189 4.18885 7.04248 4.18516 7.14563 4.18699C7.17573 4.18883 7.19327 4.18515 7.22696 4.187C7.33368 4.18884 7.42427 4.18516 7.52741 4.18699C7.55751 4.18883 7.57506 4.18515 7.60874 4.187C7.71546 4.18884 7.80605 4.18516 7.90919 4.18699C7.93929 4.18883 7.95684 4.18515 7.99072 4.187C8.1102 4.18885 8.21334 4.18516 8.32905 4.18699C8.35919 4.18883 8.37676 4.18515 8.41047 4.187C8.51719 4.18885 8.60778 4.18516 8.71093 4.18699C8.74103 4.18883 8.75858 4.18515 8.79226 4.187C8.89898 4.18884 8.98957 4.18516 9.09271 4.18699C9.12281 4.18883 9.14036 4.18515 9.17404 4.187C9.28076 4.18884 9.37135 4.18516 9.47449 4.18699C9.50459 4.18883 9.52214 4.18515 9.55582 4.187C9.66254 4.18884 9.75313 4.18516 9.85627 4.18699C9.88637 4.18883 9.90392 4.18515 9.93781 4.18701C10.0573 4.18885 10.1604 4.18516 10.2761 4.18699C10.3063 4.18883 10.3238 4.18515 10.3575 4.187C10.4642 4.18885 10.5548 4.18516 10.6579 4.18699C10.6881 4.18883 10.7056 4.18515 10.7393 4.187C10.8461 4.18885 10.9366 4.18516 11.0398 4.18699C11.0699 4.18883 11.0874 4.18515 11.1211 4.187C11.2278 4.18885 11.3184 4.18516 11.4216 4.18699C11.4517 4.18883 11.4692 4.18515 11.5031 4.18701C11.6226 4.18885 11.7257 4.18516 11.8414 4.18699C11.8716 4.18883 11.8892 4.18515 11.9229 4.187C12.0296 4.18885 12.1202 4.18516 12.2233 4.18699C12.2534 4.18883 12.271 4.18515 12.3046 4.187C12.4114 4.18885 12.502 4.18516 12.6051 4.18699C12.6352 4.18883 12.6527 4.18515 12.6864 4.187C12.7931 4.18884 12.8837 4.18516 12.9869 4.18699C13.017 4.18883 13.0345 4.18515 13.0684 4.18701C13.1879 4.18885 13.291 4.18516 13.4067 4.18699C13.4369 4.18883 13.4545 4.18515 13.4882 4.187C13.5949 4.18884 13.6855 4.18516 13.7886 4.18699C13.8187 4.18883 13.8363 4.18515 13.87 4.187C13.9767 4.18884 14.0673 4.18516 14.1704 4.18699C14.2005 4.18883 14.218 4.18515 14.2517 4.187C14.3585 4.18884 14.449 4.18516 14.5522 4.18699C14.5823 4.18883 14.5998 4.18515 14.6337 4.187C14.7532 4.18885 14.8563 4.18516 14.972 4.18699C15.0022 4.18883 15.0198 4.18515 15.0535 4.187C15.1602 4.18884 15.2508 4.18516 15.3539 4.18699C15.384 4.18883 15.4016 4.18515 15.4353 4.187C15.542 4.18884 15.6326 4.18516 15.7357 4.18699C15.7658 4.18883 15.7834 4.18515 15.817 4.187C15.9238 4.18885 16.0143 4.18516 16.1175 4.18699C16.1476 4.18883 16.1651 4.18515 16.199 4.18701C16.3185 4.18885 16.4216 4.18516 16.5373 4.18699C16.5675 4.18883 16.5851 4.18515 16.6188 4.187C16.7254 4.18885 16.816 4.18516 16.9191 4.18699C16.9493 4.18883 16.9668 4.18515 17.0005 4.187C17.1073 4.18885 17.1979 4.18516 17.301 4.18699C17.3311 4.18883 17.3487 4.18515 17.3822 4.187C17.4892 4.19291 17.58 4.1933 17.6709 4.19368C17.9394 4.29307 17.9967 4.38241 17.9967 4.70786C17.9968 7.00967 17.9967 9.31147 17.9966 11.6133C17.9966 12.6528 18.0011 13.6924 17.9923 14.7318C17.9907 14.9197 17.9341 15.1071 17.9026 15.309Z" fill="#F5B452"/>
    <path d="M17.7684 1.98152C17.9857 2.27993 18.0104 2.62005 17.9971 2.96952C17.9917 3.11097 17.9951 3.25275 17.9704 3.4111C12.8588 3.42783 7.77132 3.42748 2.68385 3.42815C1.81284 3.42827 0.94182 3.43272 0.0590513 3.43097C0.0319024 3.42049 0.0165064 3.41422 0.00597247 3.39399C0.00722307 3.32152 0.00361157 3.26301 0 3.2045C0.00423453 2.57708 0.00639923 1.94964 0.0141863 1.32226C0.0160881 1.16903 0.036421 1.01602 0.0574733 0.835953C0.0800509 0.763846 0.0934349 0.718687 0.116306 0.665034C0.164547 0.590228 0.203301 0.523918 0.251828 0.450683C0.337902 0.368635 0.414203 0.29351 0.501983 0.215257C0.558466 0.181024 0.60347 0.14992 0.662078 0.117914C0.76689 0.0839633 0.858098 0.0509153 0.96631 0.0184884C1.07361 0.0118345 1.16391 0.0045594 1.26687 0.000326361C1.29668 0.00133331 1.31383 -0.000701713 1.34768 0.00027289C1.45493 0.00127594 1.54546 -0.000730627 1.64865 0.00031473C1.67846 0.00133168 1.69561 -0.000703204 1.72969 0.000272961C1.84973 0.00127664 1.95284 -0.000730718 2.06861 0.000314305C2.09842 0.00133185 2.11557 -0.000702666 2.14943 0.000272607C2.25667 0.00127595 2.3472 -0.000730623 2.45039 0.000314659C2.4802 0.00133195 2.49735 -0.000702666 2.53121 0.000272607C2.63845 0.00127595 2.72898 -0.000730623 2.83217 0.000314659C2.86198 0.00133187 2.87913 -0.00070274 2.91299 0.000272607C3.02023 0.00127595 3.11076 -0.000730627 3.21395 0.00031473C3.24377 0.00133176 3.26091 -0.000703129 3.29499 0.000272961C3.41503 0.00127664 3.51814 -0.00073064 3.63391 0.000314234C3.66372 0.00133185 3.68087 -0.000702666 3.71473 0.000272607C3.82197 0.00127595 3.9125 -0.000730627 4.01569 0.00031473C4.04551 0.00133202 4.06265 -0.000702592 4.09651 0.000272607C4.20375 0.00127595 4.29428 -0.000730627 4.39748 0.00031473C4.42728 0.00133231 4.44443 -0.000702113 4.47829 0.000273458C4.58558 0.00204056 4.67616 0.000797541 4.78079 0.00334211C4.90945 0.0450352 5.02406 0.0829407 5.14306 0.130353C5.16039 0.144575 5.17336 0.149291 5.19226 0.165056C5.30688 0.281065 5.41557 0.386024 5.52544 0.499644C5.53009 0.520957 5.53842 0.52857 5.55674 0.543339C5.70292 0.758786 5.84397 0.962037 5.98625 1.17562C6.00131 1.20112 6.01512 1.21627 6.03113 1.24394C6.14178 1.36762 6.18628 1.5641 6.4256 1.52625C6.54567 1.52719 6.64878 1.52531 6.76455 1.5263C6.79435 1.52725 6.81147 1.52534 6.84534 1.52625C6.95261 1.52718 7.04314 1.52531 7.14634 1.5263C7.17613 1.52725 7.19325 1.52534 7.22712 1.52625C7.33439 1.52718 7.42492 1.52531 7.52812 1.5263C7.55791 1.52725 7.57503 1.52534 7.6089 1.52625C7.71617 1.52718 7.8067 1.52531 7.9099 1.5263C7.93969 1.52725 7.95681 1.52534 7.9909 1.52625C8.11097 1.52719 8.21408 1.52531 8.32986 1.5263C8.35965 1.52725 8.37677 1.52534 8.41064 1.52625C8.51791 1.52718 8.60844 1.52529 8.71167 1.52627C8.74149 1.52694 8.75859 1.52474 8.79247 1.52515C8.89974 1.52572 8.99023 1.52369 9.09338 1.5247C9.12319 1.52572 9.14034 1.52368 9.1742 1.52466C9.28144 1.52566 9.37197 1.52366 9.47516 1.5247C9.50498 1.52572 9.52212 1.52368 9.55598 1.52466C9.66322 1.52566 9.75375 1.52366 9.85695 1.5247C9.88676 1.52572 9.9039 1.52368 9.93798 1.52466C10.058 1.52566 10.1611 1.52366 10.2769 1.5247C10.3067 1.52572 10.3239 1.52368 10.3577 1.52466C10.465 1.52566 10.5555 1.52366 10.6587 1.5247C10.6885 1.52572 10.7056 1.52368 10.7395 1.52466C10.8467 1.52566 10.9373 1.52366 11.0405 1.5247C11.0703 1.52572 11.0874 1.52368 11.1213 1.52466C11.2285 1.52566 11.3191 1.52366 11.4222 1.5247C11.4521 1.52572 11.4692 1.52368 11.5033 1.52466C11.6233 1.52566 11.7264 1.52366 11.8422 1.5247C11.872 1.52572 11.8892 1.52368 11.923 1.52466C12.0303 1.52566 12.1208 1.52366 12.224 1.5247C12.2538 1.52572 12.2709 1.52368 12.3048 1.52466C12.412 1.52566 12.5026 1.52366 12.6058 1.5247C12.6356 1.52572 12.6527 1.52368 12.6866 1.52466C12.7938 1.52566 12.8844 1.52366 12.9875 1.5247C13.0174 1.52572 13.0345 1.52368 13.0686 1.52466C13.1886 1.52566 13.2917 1.52366 13.4075 1.5247C13.4373 1.52572 13.4545 1.52368 13.4883 1.52466C13.5956 1.52566 13.6861 1.52366 13.7893 1.5247C13.8191 1.52572 13.8362 1.52368 13.8701 1.52466C13.9773 1.52566 14.0679 1.52366 14.1711 1.5247C14.2009 1.52572 14.218 1.52368 14.2519 1.52466C14.3591 1.52566 14.4497 1.52366 14.5529 1.5247C14.5827 1.52572 14.5998 1.52368 14.6339 1.52466C14.7539 1.52566 14.857 1.52366 14.9728 1.5247C15.0026 1.52572 15.0198 1.52368 15.0536 1.52466C15.1609 1.52566 15.2514 1.52366 15.3546 1.5247C15.3844 1.52572 15.4016 1.52368 15.4354 1.52466C15.5427 1.52566 15.6332 1.52366 15.7364 1.5247C15.7662 1.52572 15.7833 1.52368 15.8172 1.52466C15.9244 1.52566 16.015 1.52366 16.1182 1.5247C16.148 1.52572 16.1651 1.52368 16.1992 1.52466C16.3192 1.52566 16.4223 1.52366 16.5381 1.5247C16.5679 1.52572 16.5851 1.52368 16.6189 1.52466C16.7262 1.52634 16.8168 1.52501 16.9219 1.52725C17.0576 1.55921 17.1788 1.58759 17.3099 1.6258C17.4613 1.7392 17.6027 1.84279 17.7447 1.95422C17.7486 1.97346 17.7563 1.97995 17.7684 1.98152Z" fill="#F5B452"/>
</svg>
