<svg width="103" height="90" viewBox="0 0 103 90" fill="none" xmlns="http://www.w3.org/2000/svg">
<path d="M51.5166 26.7347C58.8296 26.7347 64.7579 20.9738 64.7579 13.8673C64.7579 6.7609 58.8296 1 51.5166 1C44.2037 1 38.2754 6.7609 38.2754 13.8673C38.2754 20.9738 44.2037 26.7347 51.5166 26.7347Z" stroke="#A7ACC3" stroke-linecap="round" stroke-linejoin="round"/>
<path d="M88.4795 75.2269C95.7925 75.2269 101.721 69.466 101.721 62.3595C101.721 55.2531 95.7925 49.4922 88.4795 49.4922C81.1666 49.4922 75.2383 55.2531 75.2383 62.3595C75.2383 69.466 81.1666 75.2269 88.4795 75.2269Z" stroke="#A7ACC3" stroke-linecap="round" stroke-linejoin="round"/>
<path d="M14.2413 75.2269C21.5542 75.2269 27.4825 69.466 27.4825 62.3595C27.4825 55.2531 21.5542 49.4922 14.2413 49.4922C6.92831 49.4922 1 55.2531 1 62.3595C1 69.466 6.92831 75.2269 14.2413 75.2269Z" stroke="#A7ACC3" stroke-linecap="round" stroke-linejoin="round"/>
<path d="M64.5273 15.793C71.8006 18.3028 78.1422 22.8565 82.7468 28.8757C87.3514 34.895 90.0113 42.1082 90.3888 49.5995" stroke="#A7ACC3" stroke-linecap="round" stroke-linejoin="round"/>
<path d="M12.6465 49.5457C13.0298 42.0756 15.6825 34.8833 20.2696 28.8773C24.8567 22.8713 31.1725 18.3209 38.4192 15.8008" stroke="#A7ACC3" stroke-linecap="round" stroke-linejoin="round"/>
<path d="M82.7989 73.806C79.1719 78.5654 74.4456 82.4308 69.0004 85.0908C63.5552 87.7509 57.5433 89.1313 51.4488 89.1209C45.3543 89.1105 39.3475 87.7096 33.912 85.0311C28.4764 82.3525 23.7641 78.471 20.1543 73.6992" stroke="#A7ACC3" stroke-linecap="round" stroke-linejoin="round"/>
</svg>
