<svg width="32" height="27" viewBox="0 0 32 27" fill="#808080" xmlns="http://www.w3.org/2000/svg">
<path d="M16.0375 8.77875C17.892 8.77875 19.3954 7.29888 19.3954 5.47336C19.3954 3.64784 17.892 2.16797 16.0375 2.16797C14.183 2.16797 12.6797 3.64784 12.6797 5.47336C12.6797 7.29888 14.183 8.77875 16.0375 8.77875Z" stroke="#F2F2F2" stroke-linecap="round" stroke-linejoin="round"/>
<path d="M25.4125 21.2202C27.267 21.2202 28.7704 19.7403 28.7704 17.9148C28.7704 16.0892 27.267 14.6094 25.4125 14.6094C23.5581 14.6094 22.0547 16.0892 22.0547 17.9148C22.0547 19.7403 23.5581 21.2202 25.4125 21.2202Z" stroke="#F2F2F2" stroke-linecap="round" stroke-linejoin="round"/>
<path d="M6.58442 21.2202C8.43891 21.2202 9.94228 19.7403 9.94228 17.9148C9.94228 16.0892 8.43891 14.6094 6.58442 14.6094C4.72993 14.6094 3.22656 16.0892 3.22656 17.9148C3.22656 19.7403 4.72993 21.2202 6.58442 21.2202Z" stroke="#F2F2F2" stroke-linecap="round" stroke-linejoin="round"/>
<path d="M19.3398 5.95703C21.1843 6.60176 22.7924 7.77152 23.9601 9.31776C25.1278 10.864 25.8023 12.717 25.8981 14.6413" stroke="#F2F2F2" stroke-linecap="round" stroke-linejoin="round"/>
<path d="M6.17969 14.6333C6.2769 12.7144 6.9496 10.8668 8.11285 9.32397C9.27609 7.78113 10.8777 6.61222 12.7154 5.96484" stroke="#F2F2F2" stroke-linecap="round" stroke-linejoin="round"/>
<path d="M23.972 20.8985C23.0522 22.1211 21.8537 23.1141 20.4728 23.7974C19.092 24.4807 17.5674 24.8353 16.0219 24.8327C14.4764 24.83 12.9532 24.4701 11.5748 23.782C10.1963 23.094 9.00134 22.0969 8.08594 20.8711" stroke="#F2F2F2" stroke-linecap="round" stroke-linejoin="round"/>
</svg>
