<svg width="18" height="18" viewBox="0 0 18 18" fill="none" xmlns="http://www.w3.org/2000/svg">
<path d="M9 0.875C7.39303 0.875 5.82214 1.35152 4.486 2.24431C3.14985 3.1371 2.10844 4.40605 1.49348 5.8907C0.87852 7.37535 0.717618 9.00901 1.03112 10.5851C1.34463 12.1612 2.11846 13.6089 3.25476 14.7452C4.39106 15.8815 5.8388 16.6554 7.4149 16.9689C8.99099 17.2824 10.6247 17.1215 12.1093 16.5065C13.594 15.8916 14.8629 14.8502 15.7557 13.514C16.6485 12.1779 17.125 10.607 17.125 9C17.1225 6.84588 16.2657 4.7807 14.7425 3.25751C13.2193 1.73431 11.1541 0.87749 9 0.875ZM8.99993 4.625C9.18535 4.625 9.3666 4.67998 9.52077 4.783C9.67494 4.88601 9.79511 5.03243 9.86606 5.20373C9.93702 5.37504 9.95559 5.56354 9.91941 5.7454C9.88324 5.92725 9.79395 6.0943 9.66284 6.22541C9.53173 6.35652 9.36468 6.44581 9.18282 6.48199C9.00097 6.51816 8.81247 6.49959 8.64116 6.42864C8.46985 6.35768 8.32344 6.23752 8.22042 6.08335C8.11741 5.92918 8.06243 5.74792 8.06243 5.5625C8.06243 5.43939 8.08668 5.31748 8.13379 5.20373C8.1809 5.08999 8.24996 4.98664 8.33701 4.89959C8.42407 4.81253 8.52742 4.74348 8.64116 4.69636C8.7549 4.64925 8.87681 4.625 8.99993 4.625H8.99993ZM9.625 13.375H9C8.91791 13.375 8.83662 13.3589 8.76077 13.3275C8.68492 13.2961 8.616 13.2501 8.55796 13.192C8.49991 13.134 8.45388 13.0651 8.42248 12.9892C8.39109 12.9134 8.37496 12.8321 8.375 12.75V9C8.20924 9 8.05027 8.93415 7.93306 8.81694C7.81585 8.69973 7.75 8.54076 7.75 8.375C7.75 8.20924 7.81585 8.05027 7.93306 7.93306C8.05027 7.81585 8.20924 7.75 8.375 7.75H9C9.08209 7.74995 9.16339 7.76609 9.23924 7.79748C9.31509 7.82887 9.38401 7.87491 9.44205 7.93295C9.5001 7.991 9.54613 8.05992 9.57753 8.13577C9.60892 8.21162 9.62505 8.29291 9.625 8.375V12.125C9.79076 12.125 9.94973 12.1908 10.0669 12.3081C10.1842 12.4253 10.25 12.5842 10.25 12.75C10.25 12.9158 10.1842 13.0747 10.0669 13.1919C9.94973 13.3092 9.79076 13.375 9.625 13.375Z" fill="#C3C3C3"/>
</svg>
