<svg xmlns="http://www.w3.org/2000/svg" width="20" height="20" viewBox="0 0 20 20" fill="none">
    <path d="M18.3497 0H9.12891C9.12891 2.2992 10.9923 4.16256 13.2915 4.16256H14.9897V5.80224C14.9916 8.09952 16.8531 9.96096 19.1494 9.96192V0.79968C19.1494 0.35808 18.7913 0 18.3497 0Z" fill="#2684FF"/>
    <path d="M13.7872 4.59375H4.56641C4.56737 6.89103 6.42977 8.75247 8.72609 8.75343H10.4243V10.3989C10.4272 12.6962 12.2896 14.5557 14.5869 14.5557V5.39343C14.5878 4.95183 14.2298 4.59375 13.7872 4.59375Z" fill="url(#paint0_linear_16093_204634)"/>
    <path d="M9.2208 9.1875H0C0 11.4867 1.86336 13.3501 4.16256 13.3501H5.86656V14.9897C5.86848 17.2841 7.72608 19.1456 10.0214 19.1494V9.98718C10.0205 9.54558 9.6624 9.1875 9.2208 9.1875Z" fill="url(#paint1_linear_16093_204634)"/>
    <defs>
        <linearGradient id="paint0_linear_16093_204634" x1="14.3904" y1="4.60822" x2="10.4926" y2="8.67583" gradientUnits="userSpaceOnUse">
            <stop offset="0.18" stop-color="#0052CC"/>
            <stop offset="1" stop-color="#2684FF"/>
        </linearGradient>
        <linearGradient id="paint1_linear_16093_204634" x1="10.0864" y1="9.23115" x2="5.57734" y2="13.667" gradientUnits="userSpaceOnUse">
            <stop offset="0.18" stop-color="#0052CC"/>
            <stop offset="1" stop-color="#2684FF"/>
        </linearGradient>
    </defs>
</svg>
