<svg width="16" height="16" viewBox="0 0 16 16" fill="none" xmlns="http://www.w3.org/2000/svg">
<path d="M1.15403 10.6011C1.05291 10.5246 1.06742 10.3975 1.06742 10.3975L1.62763 3.7331C1.62763 3.7331 1.63638 3.65971 1.66902 3.62216C1.6896 3.5987 1.71563 3.56456 1.7647 3.54451C2.32811 3.31411 5.39062 1.65512 6.93334 3.19976C7.18902 3.49598 7.46656 3.9332 7.46656 4.26643V9.90686C7.46656 9.90686 7.47318 10.0265 7.36491 10.099C7.33942 10.116 7.23264 10.1647 7.10678 10.1017C4.73312 8.91411 2.08171 10.2666 1.4128 10.6213C1.27862 10.6925 1.17398 10.6164 1.15403 10.6011ZM14.5871 10.6213C13.9182 10.2666 11.2668 8.91411 8.89312 10.1017C8.76726 10.1647 8.66048 10.116 8.63499 10.099C8.52683 10.0265 8.53344 9.90686 8.53344 9.90686V4.26643C8.53344 3.9332 8.81099 3.49598 9.06667 3.19976C10.6094 1.65512 13.6524 3.314 14.2158 3.54451C14.2649 3.56456 14.2909 3.5987 14.3115 3.62216C14.3441 3.65971 14.3529 3.7331 14.3529 3.7331L14.9326 10.3975C14.9326 10.3975 14.9471 10.5246 14.846 10.6011C14.826 10.6164 14.7214 10.6925 14.5871 10.6213ZM9.45568 13.5318C9.49323 13.5227 9.55851 13.4846 9.58144 13.4491C9.60662 13.4103 9.62176 13.3833 9.62656 13.3331C9.67936 12.3327 11.3594 11.4004 14.5841 13.3013C14.6668 13.3483 14.7618 13.3435 14.8428 13.2848C14.9348 13.2179 14.9333 13.1047 14.9333 13.1047V12.5136C14.9333 12.5136 14.9337 12.4321 14.9043 12.3873C14.8825 12.354 14.8535 12.3187 14.8056 12.2958C12.6451 10.8936 9.91403 10.2721 8.52779 12.1259C8.50848 12.1711 8.49014 12.1913 8.45014 12.2225C8.38976 12.2694 8.31616 12.2664 8.31616 12.2664H7.69163C7.69163 12.2664 7.61803 12.2694 7.55766 12.2225C7.51766 12.1913 7.49931 12.1711 7.48 12.1259C6.09376 10.2721 3.36267 10.8643 1.20224 12.2664C1.15424 12.2894 1.12534 12.3247 1.10347 12.3579C1.07414 12.4027 1.07446 12.4842 1.07446 12.4842V13.0754C1.07446 13.0754 1.07296 13.1886 1.16502 13.2554C1.24598 13.3142 1.34102 13.319 1.42368 13.272C4.64843 11.3711 6.32843 12.3327 6.38123 13.3331C6.38603 13.3833 6.40118 13.4103 6.42635 13.4491C6.44928 13.4846 6.51456 13.5227 6.55211 13.5318C7.32214 13.7231 8.43862 13.7985 9.45568 13.5318Z" fill="#232F6A"/>
</svg>
