<svg width="14" height="14" viewBox="0 0 14 14" fill="none" xmlns="http://www.w3.org/2000/svg">
<g clip-path="url(#clip0_17313_59562)">
<path d="M13.4154 6.41406V6.9974C12.769 6.9974 12.622 7.8059 12.6074 7.89806C12.3852 9.37973 11.6624 12.8307 9.76953 12.8307C7.7232 12.8307 7.2087 9.89073 6.71111 7.04756C6.25611 4.44181 5.7842 1.7474 4.22786 1.7474C3.2362 1.7474 2.3962 3.20456 2.03745 5.55015C2.01063 5.9265 1.84846 6.28042 1.58091 6.54647C1.31336 6.81252 0.958533 6.9727 0.582031 6.9974V6.41406C1.27911 6.41406 1.44478 5.55481 1.46111 5.4574C1.72945 3.70273 2.24453 2.43281 2.93286 1.7474H2.91536V1.16406H3.4987V1.33323C3.72565 1.22191 3.97508 1.16404 4.22786 1.16406C4.37534 1.1652 4.52217 1.18361 4.66536 1.2189V1.16406H5.2487V1.4709C6.47078 2.2934 6.88436 4.65123 7.28628 6.94723C7.74128 9.55298 8.2132 12.2474 9.76953 12.2474C10.7536 12.2474 11.6199 10.547 12.0305 7.8094C12.0515 7.44796 12.2039 7.10664 12.4589 6.84967C12.7139 6.5927 13.0541 6.43778 13.4154 6.41406ZM1.16536 1.16406H0.582031V1.7474H1.16536V1.16406ZM2.33203 1.16406H1.7487V1.7474H2.33203V1.16406ZM6.41536 1.16406H5.83203V1.7474H6.41536V1.16406ZM7.58203 1.16406H6.9987V1.7474H7.58203V1.16406ZM8.7487 1.16406H8.16536V1.7474H8.7487V1.16406ZM9.91536 1.16406H9.33203V1.7474H9.91536V1.16406ZM11.082 1.16406H10.4987V1.7474H11.082V1.16406ZM12.2487 1.16406H11.6654V1.7474H12.2487V1.16406ZM12.832 1.16406V1.7474H13.4154V1.16406H12.832Z" fill="#232F6A"/>
</g>
<defs>
<clipPath id="clip0_17313_59562">
<rect width="14" height="14" fill="white"/>
</clipPath>
</defs>
</svg>
