<?xml version="1.0" encoding="UTF-8"?>
<svg xmlns="http://www.w3.org/2000/svg" xmlns:xlink="http://www.w3.org/1999/xlink" width="12px" height="22px" viewBox="0 0 12 24" version="1.1">
<g id="surface1">
<path style=" stroke:none;fill-rule:nonzero;fill:rgb(13.72549%,18.431373%,41.568627%);fill-opacity:1;" d="M 8.175781 5.941406 C 8.175781 4.898438 7.332031 4.054688 6.289062 4.054688 C 5.246094 4.054688 4.402344 4.898438 4.402344 5.941406 C 4.402344 6.980469 5.246094 7.828125 6.289062 7.828125 C 7.332031 7.828125 8.175781 6.980469 8.175781 5.941406 Z M 8.175781 5.941406 "/>
<path style=" stroke:none;fill-rule:nonzero;fill:rgb(13.72549%,18.431373%,41.568627%);fill-opacity:1;" d="M 8.175781 11.59375 C 8.175781 10.554688 7.332031 9.707031 6.289062 9.707031 C 5.246094 9.707031 4.402344 10.554688 4.402344 11.59375 C 4.402344 12.636719 5.246094 13.480469 6.289062 13.480469 C 7.332031 13.480469 8.175781 12.636719 8.175781 11.59375 Z M 8.175781 11.59375 "/>
<path style=" stroke:none;fill-rule:nonzero;fill:rgb(13.72549%,18.431373%,41.568627%);fill-opacity:1;" d="M 8.175781 17.253906 C 8.175781 16.214844 7.332031 15.367188 6.289062 15.367188 C 5.246094 15.367188 4.402344 16.214844 4.402344 17.253906 C 4.402344 18.296875 5.246094 19.140625 6.289062 19.140625 C 7.332031 19.140625 8.175781 18.296875 8.175781 17.253906 Z M 8.175781 17.253906 "/>
</g>
</svg>
