<svg width="14" height="14" viewBox="0 0 14 14" fill="none" xmlns="http://www.w3.org/2000/svg">
<g clip-path="url(#clip0_17313_59565)">
<path d="M13.4154 6.41406V6.9974C12.769 6.9974 12.622 7.8059 12.6074 7.89806C12.4418 9.00231 11.9973 11.1997 10.998 12.2474H11.082V12.8307H10.4987V12.6347C10.2764 12.7613 10.0253 12.8288 9.76953 12.8307C9.62206 12.8296 9.47522 12.8112 9.33203 12.7759V12.8307H8.7487V12.5239C7.52661 11.7014 7.11303 9.34356 6.71111 7.04756C6.25611 4.44181 5.7842 1.7474 4.22786 1.7474C3.2362 1.7474 2.3962 3.20456 2.03745 5.55015C2.01063 5.9265 1.84846 6.28042 1.58091 6.54647C1.31336 6.81252 0.958533 6.9727 0.582031 6.9974V6.41406C1.27911 6.41406 1.44478 5.55481 1.46111 5.4574C1.87878 2.73031 2.88736 1.16406 4.22786 1.16406C6.2742 1.16406 6.7887 4.10406 7.28628 6.94723C7.74128 9.55298 8.2132 12.2474 9.76953 12.2474C10.7536 12.2474 11.6199 10.547 12.0305 7.8094C12.0515 7.44796 12.2039 7.10664 12.4589 6.84967C12.7139 6.5927 13.0541 6.43778 13.4154 6.41406ZM12.832 12.8307H13.4154V12.2474H12.832V12.8307ZM11.6654 12.8307H12.2487V12.2474H11.6654V12.8307ZM7.58203 12.8307H8.16536V12.2474H7.58203V12.8307ZM6.41536 12.8307H6.9987V12.2474H6.41536V12.8307ZM5.2487 12.8307H5.83203V12.2474H5.2487V12.8307ZM4.08203 12.8307H4.66536V12.2474H4.08203V12.8307ZM2.91536 12.8307H3.4987V12.2474H2.91536V12.8307ZM1.7487 12.8307H2.33203V12.2474H1.7487V12.8307ZM0.582031 12.8307H1.16536V12.2474H0.582031V12.8307Z" fill="#232F6A"/>
</g>
<defs>
<clipPath id="clip0_17313_59565">
<rect width="14" height="14" fill="white"/>
</clipPath>
</defs>
</svg>
