<svg width="93" height="94" viewBox="0 0 93 94" fill="none" xmlns="http://www.w3.org/2000/svg">
<path d="M16.74 86H15.86C15.6733 86 15.58 85.9067 15.58 85.72V73.42C15.58 73.2333 15.6733 73.14 15.86 73.14H16.68C16.84 73.14 16.9467 73.1933 17 73.3L22.52 83H22.6V73.42C22.6 73.2333 22.6933 73.14 22.88 73.14H23.76C23.9467 73.14 24.04 73.2333 24.04 73.42V85.72C24.04 85.9067 23.9467 86 23.76 86H23.02C22.8733 86 22.7333 85.9133 22.6 85.74L17.1 76.14H17.02V85.72C17.02 85.9067 16.9267 86 16.74 86ZM31.4811 86H29.7611C28.8411 86 28.1144 85.74 27.5811 85.22C27.0611 84.7 26.8011 83.9733 26.8011 83.04V78.76C26.8011 77.8267 27.0611 77.1 27.5811 76.58C28.1144 76.06 28.8411 75.8 29.7611 75.8H31.4811C32.4011 75.8 33.1211 76.06 33.6411 76.58C34.1744 77.1 34.4411 77.8267 34.4411 78.76V83.04C34.4411 83.9733 34.1744 84.7 33.6411 85.22C33.1211 85.74 32.4011 86 31.4811 86ZM29.9211 84.72H31.3211C32.4411 84.72 33.0011 84.1467 33.0011 83V78.8C33.0011 77.6533 32.4411 77.08 31.3211 77.08H29.9211C28.8011 77.08 28.2411 77.6533 28.2411 78.8V83C28.2411 84.1467 28.8011 84.72 29.9211 84.72ZM43.9392 84.72H47.2992C48.4192 84.72 48.9792 84.14 48.9792 82.98V76.16C48.9792 75 48.4192 74.42 47.2992 74.42H43.9392C43.8059 74.42 43.7392 74.48 43.7392 74.6V84.54C43.7392 84.66 43.8059 84.72 43.9392 84.72ZM42.2792 85.72V73.42C42.2792 73.2333 42.3726 73.14 42.5592 73.14H47.4792C48.3992 73.14 49.1192 73.4067 49.6392 73.94C50.1726 74.46 50.4392 75.18 50.4392 76.1V83.04C50.4392 83.96 50.1726 84.6867 49.6392 85.22C49.1192 85.74 48.3992 86 47.4792 86H42.5592C42.3726 86 42.2792 85.9067 42.2792 85.72ZM56.9925 86H55.9525C55.0325 86 54.3058 85.74 53.7725 85.22C53.2525 84.7 52.9925 83.9733 52.9925 83.04V78.76C52.9925 77.8267 53.2525 77.1 53.7725 76.58C54.3058 76.06 55.0325 75.8 55.9525 75.8H60.2925C60.4792 75.8 60.5725 75.8933 60.5725 76.08V85.72C60.5725 85.9067 60.4792 86 60.2925 86H59.3925C59.2058 86 59.1125 85.9067 59.1125 85.72V84.94H59.0325C58.6992 85.6467 58.0192 86 56.9925 86ZM59.1125 82.88V77.26C59.1125 77.14 59.0458 77.08 58.9125 77.08H56.1125C55.0058 77.08 54.4525 77.66 54.4525 78.82V82.98C54.4525 84.14 55.0058 84.72 56.1125 84.72H57.2525C57.8525 84.72 58.3125 84.56 58.6325 84.24C58.9525 83.92 59.1125 83.4667 59.1125 82.88ZM63.7092 77.08H62.6092C62.4226 77.08 62.3292 76.9933 62.3292 76.82V76.08C62.3292 75.8933 62.4226 75.8 62.6092 75.8H63.7092C63.8426 75.8 63.9092 75.74 63.9092 75.62V73.9C63.9092 73.7133 64.0026 73.62 64.1892 73.62H65.0892C65.2626 73.62 65.3492 73.7133 65.3492 73.9V75.62C65.3492 75.74 65.4226 75.8 65.5692 75.8H67.6892C67.8892 75.8 67.9892 75.8933 67.9892 76.08V76.82C67.9892 76.9933 67.8892 77.08 67.6892 77.08H65.5692C65.4226 77.08 65.3492 77.14 65.3492 77.26V83.02C65.3492 84.1533 65.9359 84.72 67.1092 84.72H67.8892C68.0892 84.72 68.1892 84.8133 68.1892 85V85.74C68.1892 85.9133 68.0892 86 67.8892 86H66.9292C66.0092 86 65.2759 85.7467 64.7292 85.24C64.1826 84.72 63.9092 84 63.9092 83.08V77.26C63.9092 77.14 63.8426 77.08 63.7092 77.08ZM74.1019 86H73.0619C72.1419 86 71.4152 85.74 70.8819 85.22C70.3619 84.7 70.1019 83.9733 70.1019 83.04V78.76C70.1019 77.8267 70.3619 77.1 70.8819 76.58C71.4152 76.06 72.1419 75.8 73.0619 75.8H77.4019C77.5885 75.8 77.6819 75.8933 77.6819 76.08V85.72C77.6819 85.9067 77.5885 86 77.4019 86H76.5019C76.3152 86 76.2219 85.9067 76.2219 85.72V84.94H76.1419C75.8085 85.6467 75.1285 86 74.1019 86ZM76.2219 82.88V77.26C76.2219 77.14 76.1552 77.08 76.0219 77.08H73.2219C72.1152 77.08 71.5619 77.66 71.5619 78.82V82.98C71.5619 84.14 72.1152 84.72 73.2219 84.72H74.3619C74.9619 84.72 75.4219 84.56 75.7419 84.24C76.0619 83.92 76.2219 83.4667 76.2219 82.88Z" fill="#A9BCC3"/>
<path d="M32.447 13.5058C32.4058 13.6156 32.3921 13.8215 32.4196 13.9587C32.4607 14.1921 33.0784 14.2058 46.4333 14.247L60.3921 14.2744V20.0391C60.3921 25.6528 60.3921 25.8038 60.6666 25.9411C60.8588 26.0509 61.0235 26.0509 61.2156 25.9411C61.4901 25.8038 61.4901 25.6528 61.4901 19.7646C61.4901 16.4568 61.449 13.6568 61.4078 13.5332C61.3254 13.3411 59.9254 13.3136 46.9274 13.3136C34.5058 13.3136 32.5156 13.3411 32.447 13.5058Z" fill="#A9BCC3"/>
<path d="M30.0863 15.8115C29.9627 15.9351 29.9216 17.4037 29.9216 21.5625V27.1488L28.9608 27.2037C27.8353 27.2586 27.3961 27.5331 26.9431 28.4115C26.6274 29.0155 26.6274 29.0566 26.6274 35.288C26.6274 40.8194 26.6549 41.588 26.847 41.7802C27.1078 42.0409 27.3686 42.0547 27.5608 41.8213C27.6569 41.7115 27.7392 40.8468 27.7529 39.7213L27.7941 37.8135L45.7471 37.7723L63.6863 37.7449L63.6588 47.6547C63.6176 57.0841 63.6039 57.5919 63.3569 57.9625L63.1098 58.3331H48.3137C40.1745 58.3331 33.4216 58.3743 33.298 58.4155C33.0235 58.5253 33.0098 59.0606 33.2706 59.2802C33.5176 59.486 62.2039 59.486 63.1647 59.2802C63.9196 59.1155 64.4274 58.6076 64.6471 57.7841C64.7431 57.4272 64.7706 52.5684 64.7569 42.9056C64.7157 28.6723 64.7157 28.5625 64.4274 28.1919C64.2765 27.986 63.9745 27.6841 63.7686 27.5331C63.4118 27.2586 63.2196 27.2449 59.198 27.2449H54.998L52.9941 29.3449L50.9902 31.4311L39.598 31.4723C33.3392 31.486 28.0961 31.5547 27.9725 31.6233C27.7392 31.7194 27.7255 31.6233 27.7255 30.3606C27.7255 29.1939 27.7667 28.9468 28.0137 28.6311C28.2608 28.3155 28.398 28.2743 29.098 28.2743H29.9078L29.949 29.1802C29.9902 30.1958 30.2372 30.539 30.7176 30.2507C30.9372 30.1135 30.951 29.6057 30.9921 23.4155L31.0196 16.7449H44.5392H58.0588V21.2606C58.0588 25.0351 58.0863 25.8037 58.2647 25.9409C58.5255 26.1606 58.9784 25.9958 59.0745 25.6253C59.2255 25.0762 59.1706 16.1958 59.0196 15.9076C58.8823 15.6468 58.5667 15.6468 44.5667 15.6468C33.6137 15.6468 30.2098 15.688 30.0863 15.8115ZM63.3431 28.6174L63.6863 28.9468V32.8723V36.7841L45.7471 36.7566L27.7941 36.7155V34.9037C27.7941 33.339 27.8353 33.0507 28.0412 32.8449C28.2745 32.6115 28.9882 32.5978 39.7765 32.5292C48.4647 32.4743 51.3333 32.4194 51.5529 32.2958C51.7176 32.1998 52.5274 31.4037 53.3372 30.5115C54.1608 29.6331 54.9706 28.7684 55.1353 28.59C55.4372 28.2743 55.451 28.2743 59.2255 28.2743H63.0137L63.3431 28.6174Z" fill="#A9BCC3"/>
<path d="M34.4922 19.215C34.1765 19.3385 34.1079 19.5581 34.2589 19.9562C34.3413 20.1483 35.3569 20.1758 44.4569 20.1758C52.1432 20.1758 54.6138 20.1346 54.7373 20.0111C54.9981 19.7503 54.9295 19.3523 54.6001 19.215C54.1883 19.064 34.8903 19.064 34.4922 19.215Z" fill="#A9BCC3"/>
<path d="M34.4238 22.2492C34.1218 22.4277 34.1081 23.0041 34.3963 23.1139C34.5199 23.1551 39.1042 23.1963 44.5944 23.1963C52.1709 23.1963 54.614 23.1551 54.7375 23.0316C54.9846 22.7845 54.9434 22.4002 54.6414 22.2492C54.2846 22.0571 34.7395 22.0571 34.4238 22.2492Z" fill="#A9BCC3"/>
<path d="M34.4235 25.2682C34.1353 25.4329 34.1078 25.8173 34.3411 26.0506C34.5745 26.2839 54.5039 26.2839 54.7372 26.0506C54.9843 25.8035 54.9294 25.4192 54.6411 25.2545C54.2706 25.0624 34.7529 25.0761 34.4235 25.2682Z" fill="#A9BCC3"/>
<path d="M34.3415 28.302C34.2454 28.3981 34.1768 28.5628 34.1768 28.6863C34.1768 29.2216 34.2866 29.2354 40.9022 29.2354C45.6924 29.2354 47.3395 29.1942 47.463 29.0706C47.7101 28.8236 47.6552 28.4393 47.367 28.2746C46.9552 28.0687 34.5611 28.0824 34.3415 28.302Z" fill="#A9BCC3"/>
<path d="M25.5021 43.3173C24.6786 43.5095 23.2374 44.182 22.6472 44.635C20.7256 46.1311 19.6825 47.9017 19.3394 50.2762C18.7903 53.9958 21.206 57.7566 24.9119 58.9781C26.2982 59.4311 28.2884 59.486 29.5786 59.1017C34.0805 57.7703 36.5511 53.1448 35.1374 48.684C34.5335 46.7624 32.8178 44.8134 30.9374 43.9213C29.2903 43.1252 27.2041 42.8919 25.5021 43.3173ZM29.6335 44.5526C31.6374 45.2115 33.257 46.7762 34.0531 48.8213C34.4237 49.782 34.5472 51.635 34.3276 52.7193C33.957 54.4624 32.7492 56.1781 31.1845 57.1938C27.1766 59.7742 21.7825 57.633 20.5609 52.9801C19.9433 50.6056 20.5609 48.2585 22.3178 46.4056C23.7315 44.8958 25.2962 44.2095 27.355 44.2095C28.3021 44.1958 28.7962 44.2781 29.6335 44.5526Z" fill="#A9BCC3"/>
<path d="M25.667 45.5407C24.5277 45.925 24.0885 46.1858 23.2238 47.0505C21.3709 48.8623 20.9317 51.525 22.0983 53.8995C23.2238 56.178 25.8591 57.5368 28.3023 57.125C30.6493 56.7133 32.3925 55.2035 33.0925 52.9662C33.9709 50.1525 32.5709 47.0917 29.8258 45.8015C29.0297 45.4309 28.714 45.3623 27.6572 45.3348C26.7375 45.3074 26.2297 45.3623 25.667 45.5407ZM29.1944 46.6937C30.3062 47.1054 31.5415 48.3544 31.967 49.4799C32.2277 50.1662 32.2689 50.5093 32.2277 51.4701C32.1866 52.4721 32.1042 52.7603 31.7062 53.5015C31.1709 54.5172 30.4434 55.2172 29.3866 55.7113C28.7415 56.0133 28.4258 56.0682 27.3826 56.0682C26.2983 56.0682 26.0513 56.0133 25.3375 55.6701C24.2944 55.1623 23.4846 54.3525 22.9768 53.3093C22.6336 52.5956 22.5787 52.3486 22.5787 51.2642C22.5787 50.2211 22.6336 49.9054 22.9356 49.274C23.5532 47.9564 24.5277 47.078 25.914 46.5838C26.7238 46.2956 28.2748 46.3505 29.1944 46.6937Z" fill="#A9BCC3"/>
<rect width="0.634574" height="5.07659" rx="0.317287" transform="matrix(0.707105 -0.707109 0.707105 0.707109 25.4424 49.7168)" fill="#A9BCC3"/>
<rect width="0.634574" height="5.07659" rx="0.317287" transform="matrix(0.707105 0.707109 -0.707105 0.707109 29.0322 49.2686)" fill="#A9BCC3"/>
</svg>
