<svg xmlns="http://www.w3.org/2000/svg" width="24" height="24" viewBox="0 0 24 24" fill="none">
    <path opacity="0.3" d="M21.2501 18.52L13.0001 21.8C12.3399 22.0701 11.6002 22.0701 10.9401 21.8L2.75006 18.52C2.52686 18.4312 2.33545 18.2774 2.2006 18.0787C2.06574 17.8799 1.99365 17.6452 1.99365 17.405C1.99365 17.1648 2.06574 16.9301 2.2006 16.7313C2.33545 16.5325 2.52686 16.3788 2.75006 16.29L4.00006 15.78L10.1901 18.26C11.3334 18.7133 12.6067 18.7133 13.7501 18.26L20.0001 15.78L21.2801 16.29C21.5021 16.3817 21.6915 16.538 21.8237 16.7386C21.9559 16.9392 22.0249 17.1749 22.0217 17.4152C22.0184 17.6554 21.9431 17.8891 21.8056 18.0861C21.668 18.2831 21.4745 18.4342 21.2501 18.52ZM13.0001 16.4L21.2201 13.11C21.4402 13.0196 21.6284 12.8658 21.7609 12.6681C21.8934 12.4705 21.9641 12.2379 21.9641 12C21.9641 11.762 21.8934 11.5295 21.7609 11.3318C21.6284 11.1342 21.4402 10.9804 21.2201 10.89L13.0001 7.59998C12.3558 7.35563 11.6443 7.35563 11.0001 7.59998L2.75006 10.89C2.52997 10.9804 2.34172 11.1342 2.20924 11.3318C2.07675 11.5295 2.00602 11.762 2.00602 12C2.00602 12.2379 2.07675 12.4705 2.20924 12.6681C2.34172 12.8658 2.52997 13.0196 2.75006 13.11L11.0001 16.4C11.6443 16.6443 12.3558 16.6443 13.0001 16.4Z" fill="#232F6A"/>
    <path d="M11.0001 11L2.75006 7.70999C2.52686 7.62119 2.33545 7.46745 2.2006 7.26866C2.06574 7.06988 1.99365 6.8352 1.99365 6.59499C1.99365 6.35477 2.06574 6.12009 2.2006 5.92131C2.33545 5.72252 2.52686 5.56878 2.75006 5.47998L11.0001 2.19999C11.6425 1.94599 12.3576 1.94599 13.0001 2.19999L21.2201 5.47998C21.4433 5.56878 21.6347 5.72252 21.7695 5.92131C21.9044 6.12009 21.9765 6.35477 21.9765 6.59499C21.9765 6.8352 21.9044 7.06988 21.7695 7.26866C21.6347 7.46745 21.4433 7.62119 21.2201 7.70999L13.0001 11C12.3558 11.2443 11.6443 11.2443 11.0001 11Z" fill="#232F6A"/>
</svg>
