<svg width="30" height="30" viewBox="0 0 40 40" fill="none" xmlns="http://www.w3.org/2000/svg">
<path fill-rule="evenodd" clip-rule="evenodd" d="M24.9393 22.3506C23.3943 22.4506 21.7476 22.5007 20.0026 22.5007C18.2576 22.5007 16.6109 22.4506 15.0659 22.3506C15.5109 30.6073 18.2059 36.9173 20.0026 36.9173C21.7993 36.9173 24.4926 30.609 24.9393 22.3506ZM11.7126 22.0373C11.9659 27.989 13.3143 32.9256 15.1459 36.1073C8.3076 34.0073 3.33594 27.5907 3.33594 20.0007V19.8506C5.55094 20.8857 8.34094 21.6107 11.7126 22.0373ZM3.73927 16.304C5.6176 17.4073 8.27094 18.204 11.6876 18.6706C11.8593 12.404 13.2426 7.20065 15.1443 3.89398C9.4526 5.64398 5.0526 10.384 3.73927 16.304ZM15.0143 19.0073C15.2176 10.0957 18.1093 3.08398 20.0026 3.08398C21.8959 3.08398 24.7876 10.0957 24.9909 19.0073C23.4493 19.114 21.7859 19.1673 20.0026 19.1673C18.3385 19.171 16.6747 19.1177 15.0143 19.0073ZM28.2926 22.0373C31.6643 21.6107 34.4543 20.8873 36.6693 19.8523V20.0007C36.6693 27.5907 31.6959 34.0073 24.8609 36.1073C26.6909 32.924 28.0376 27.989 28.2926 22.0373ZM36.2659 16.304C34.3876 17.4073 31.7343 18.204 28.3176 18.6706C28.1459 12.404 26.7626 7.20065 24.8609 3.89398C30.5526 5.64398 34.9526 10.384 36.2659 16.304Z" fill="#232F6A"/>
</svg>
