<svg width="14" height="14" viewBox="0 0 14 14" fill="none" xmlns="http://www.w3.org/2000/svg">
<path d="M4.34961 12.4492V12.9393C4.24896 12.9365 4.18946 12.9038 4.16039 12.8776C4.13356 12.8534 4.11328 12.819 4.11328 12.7598C4.11328 12.6578 4.12487 12.5891 4.25197 12.3984L4.25198 12.3984L4.25349 12.3961L4.34961 12.2502V12.3965V12.4492ZM9.89725 12.9312C9.89749 12.931 9.89761 12.9309 9.89761 12.9309L9.89725 12.9312ZM7.67767 7.22372L4.82722 11.5251L7.64606 7.24573L7.72851 7.12057V6.97069V6.90624V6.75368L7.64334 6.62711L5.44981 3.36716L7.59967 6.54206L7.6002 6.54285C7.80581 6.84524 7.81251 6.90875 7.81251 6.94726C7.81251 6.97888 7.8091 6.99243 7.79982 7.01467C7.78415 7.05222 7.75341 7.10713 7.67767 7.22372ZM4.35546 1.59766V1.74077L4.25782 1.59568C4.25763 1.59539 4.25744 1.5951 4.25725 1.59481C4.1307 1.40485 4.11916 1.33622 4.11916 1.23436C4.11916 1.16774 4.14116 1.13498 4.16395 1.11446C4.18988 1.09111 4.24825 1.05751 4.35546 1.05486V1.54491V1.59766ZM9.90313 1.03663C9.90336 1.03648 9.90347 1.03641 9.90348 1.03642L9.90313 1.03663Z" fill="#232F6A" stroke="#232F6A"/>
</svg>
