<svg width="22" height="22" viewBox="0 0 22 22" fill="none" xmlns="http://www.w3.org/2000/svg">
<path d="M17.0938 16.8906V14.8594C17.0938 14.7477 17.0023 14.6562 16.8906 14.6562H5.10938C4.99766 14.6562 4.90625 14.7477 4.90625 14.8594V16.8906C4.90625 17.0023 4.99766 17.0938 5.10938 17.0938H16.8906C17.0023 17.0938 17.0938 17.0023 17.0938 16.8906ZM9.98438 12.0156V9.98438C9.98438 9.87266 9.89297 9.78125 9.78125 9.78125H5.10938C4.99766 9.78125 4.90625 9.87266 4.90625 9.98438V12.0156C4.90625 12.1273 4.99766 12.2188 5.10938 12.2188H9.78125C9.89297 12.2188 9.98438 12.1273 9.98438 12.0156ZM11.8125 7.14062L11.8125 5.10938C11.8125 4.99766 11.7211 4.90625 11.6094 4.90625H5.10938C4.99766 4.90625 4.90625 4.99766 4.90625 5.10938V7.14062C4.90625 7.25234 4.99766 7.34375 5.10938 7.34375H11.6094C11.7211 7.34375 11.8125 7.25234 11.8125 7.14062ZM0.84375 1.65625L0.84375 20.3438C0.84375 20.7932 1.20684 21.1562 1.65625 21.1562H20.3438C20.7932 21.1562 21.1562 20.7932 21.1562 20.3438V1.65625C21.1562 1.20684 20.7932 0.84375 20.3438 0.84375H1.65625C1.20684 0.84375 0.84375 1.20684 0.84375 1.65625ZM19.3281 2.67188V19.3281H2.67188L2.67188 2.67188H19.3281Z" fill="#232F6A"/>
</svg>
