<svg xmlns="http://www.w3.org/2000/svg" width="24" height="24" viewBox="0 0 24 24" fill="none">
    <path d="M16.4824 3.0148C16.3873 3.03241 16.162 3.12044 15.9894 3.20143C15.4789 3.45143 15.0986 3.881 14.9155 4.41973C14.8239 4.68734 14.7852 5.16269 14.8345 5.42678L14.8697 5.60988L11.7535 7.59227C10.0387 8.68382 8.60211 9.59579 8.55986 9.62044C8.49648 9.65565 8.46479 9.64509 8.32746 9.53593C8.10915 9.3634 7.58451 9.12044 7.28521 9.05354C6.07394 8.78593 4.81338 9.39156 4.28169 10.4937C4.07394 10.9233 4 11.2437 4 11.7014C4 12.9796 4.89085 14.0676 6.15845 14.3387C6.51056 14.4127 7.1338 14.3845 7.46831 14.2789C7.78169 14.1803 8.05282 14.043 8.29225 13.8634C8.39789 13.7824 8.5 13.7296 8.52113 13.7402C8.60563 13.7895 12.0986 16.2895 12.0986 16.3C12.0986 16.3071 12.0599 16.4162 12.0141 16.5395C11.8204 17.0535 11.757 17.8317 11.8697 18.3528C12.1549 19.7085 13.1972 20.7155 14.5528 20.9514C15.9859 21.2014 17.419 20.469 18.0669 19.1556C18.2782 18.7261 18.3697 18.3669 18.3908 17.8634C18.4155 17.3599 18.3662 17.0218 18.2077 16.5747C17.7887 15.4092 16.7289 14.5711 15.4754 14.4162C14.6514 14.3176 13.7887 14.5606 13.0951 15.0852C12.912 15.2226 12.7852 15.293 12.7606 15.2789C12.6937 15.2366 9.26761 12.7965 9.23239 12.7613C9.21479 12.7437 9.23592 12.6204 9.28521 12.4585C9.35915 12.2226 9.36972 12.1134 9.36972 11.6909C9.36972 11.2683 9.35563 11.1592 9.28521 10.9233C9.23944 10.7754 9.20775 10.6451 9.21479 10.638C9.22183 10.631 10.6373 9.72959 12.3592 8.631L15.493 6.64157L15.6514 6.75776C16.0387 7.03945 16.4261 7.16621 16.912 7.16621C17.5035 7.16621 17.9472 6.98312 18.3697 6.56762C18.7958 6.14861 19 5.66973 19 5.08171C19 4.1803 18.4401 3.38804 17.5915 3.09579C17.2958 2.99016 16.7817 2.95495 16.4824 3.0148Z" fill="white"/>
</svg>
