<svg xmlns="http://www.w3.org/2000/svg" width="80" height="81" viewBox="0 0 80 81" fill="none">
    <path d="M63.3019 0.207031L79.4329 16.8105V79.9495H19.1738V80.1556H79.6387V17.0195L63.3019 0.207031Z" fill="#909090"/>
    <path d="M63.1034 0H18.9695V79.9486H79.4344V16.8125L63.1034 0Z" fill="#F4F4F4"/>
    <path d="M18.5256 4.29297H0V23.8364H58.2731V4.29297H18.5256Z" fill="#7A7B7C"/>
    <path d="M58.5829 23.5031H0.376465V3.94531H58.5829V23.5031Z" fill="#DD2025"/>
    <path d="M19.6769 7.25819H15.8877V20.999H18.868V16.3643L19.5261 16.4016C20.1656 16.3907 20.7991 16.2776 21.4019 16.0666C21.9304 15.8871 22.4166 15.6037 22.8312 15.2336C23.253 14.881 23.5856 14.4359 23.8024 13.9339C24.0932 13.0995 24.197 12.2126 24.1068 11.3346C24.0887 10.7074 23.9773 10.0863 23.7763 9.49107C23.5933 9.0614 23.3217 8.67407 22.9788 8.35371C22.6359 8.03336 22.2292 7.78701 21.7846 7.63034C21.4002 7.49292 21.003 7.3932 20.5988 7.33262C20.2928 7.28599 19.9837 7.26111 19.674 7.25819M19.1261 13.8252H18.868V9.5884H19.4276C19.6745 9.57082 19.9223 9.60825 20.1526 9.69793C20.383 9.78762 20.59 9.92726 20.7583 10.1065C21.1071 10.5675 21.2935 11.1285 21.2888 11.7039C21.2888 12.4081 21.2888 13.0465 20.6452 13.4959C20.1815 13.7478 19.6538 13.864 19.1261 13.8252ZM29.7689 7.22097C29.4471 7.22097 29.134 7.24388 28.9136 7.25246L28.2236 7.26964H25.9623V21.0104H28.6237C29.6408 21.038 30.6535 20.8678 31.604 20.5095C32.3692 20.2098 33.0467 19.7268 33.5755 19.1039C34.0897 18.4754 34.4587 17.7437 34.6569 16.9598C34.8846 16.072 34.9957 15.1589 34.9874 14.2431C35.0436 13.1615 34.9588 12.0772 34.7351 11.0169C34.5229 10.2364 34.1253 9.5171 33.5755 8.91854C33.1441 8.43521 32.6159 8.04534 32.0244 7.77347C31.5164 7.54136 30.9821 7.37028 30.4328 7.26391C30.2144 7.22829 29.9931 7.212 29.7718 7.21525M29.2441 18.4856H28.9542V9.71436H28.9919C29.5896 9.64646 30.1943 9.75294 30.7314 10.0207C31.1247 10.3308 31.4452 10.7214 31.6707 11.1657C31.9141 11.6333 32.0544 12.1465 32.0824 12.6715C32.1085 13.3013 32.0824 13.8166 32.0824 14.2431C32.0942 14.7344 32.0622 15.2259 31.9867 15.7116C31.8974 16.2104 31.7322 16.693 31.4968 17.143C31.2303 17.5614 30.8703 17.9139 30.4444 18.1735C30.0867 18.402 29.6631 18.5086 29.2383 18.477M43.9661 7.26964H36.9211V21.0104H39.9014V15.5599H43.6703V13.0064H39.9014V9.82314H43.9603V7.26964" fill="#464648"/>
    <path d="M56.5792 52.2546C56.5792 52.2546 65.8217 50.5999 65.8217 53.7174C65.8217 56.8348 60.0958 55.5667 56.5792 52.2546ZM49.7458 52.4922C48.2774 52.8125 46.8463 53.2816 45.4754 53.892L46.635 51.3156C47.7947 48.7392 48.9979 45.2267 48.9979 45.2267C50.3817 47.5264 51.9917 49.6857 53.8047 51.6734C52.4375 51.8747 51.0825 52.15 49.7458 52.4979V52.4922ZM46.0871 33.8848C46.0871 31.1681 46.9771 30.4267 47.67 30.4267C48.3629 30.4267 49.1428 30.7559 49.1689 33.1148C48.9432 35.4867 48.4402 37.8248 47.67 40.0825C46.6151 38.1869 46.0691 36.0563 46.0842 33.8934L46.0871 33.8848ZM32.6089 63.9886C29.7735 62.314 38.5551 57.1583 40.1467 56.9923C40.138 56.9951 35.5776 65.7406 32.6089 63.9886ZM68.5208 54.0867C68.4918 53.8004 68.2309 50.6314 62.5195 50.766C60.139 50.7281 57.7595 50.8938 55.4079 51.2612C53.1299 48.9951 51.1683 46.4391 49.5748 43.6608C50.5787 40.7965 51.1862 37.8114 51.381 34.7866C51.2969 31.3514 50.4648 29.3818 47.7976 29.4105C45.1304 29.4391 44.7419 31.7435 45.0927 35.173C45.4363 37.4776 46.0845 39.7278 47.0206 41.8659C47.0206 41.8659 45.7885 45.6532 44.1592 49.4205C42.5298 53.1878 41.4166 55.163 41.4166 55.163C38.5833 56.0738 35.9161 57.4268 33.5163 59.1708C31.1274 61.3664 30.1562 63.0525 31.4145 64.7387C32.4987 66.1929 36.2937 66.5221 39.6858 62.1336C41.488 59.867 43.1346 57.4837 44.6143 54.9999C44.6143 54.9999 49.7864 53.6 51.3955 53.2164C53.0045 52.8328 54.9498 52.5294 54.9498 52.5294C54.9498 52.5294 59.6726 57.2213 64.2271 57.0553C68.7817 56.8892 68.5614 54.3672 68.5324 54.0924" fill="#DD2025"/>
    <path d="M62.8813 0.222656V17.0351H79.2123L62.8813 0.222656Z" fill="#909090"/>
    <path d="M63.1035 0V16.8125H79.4345L63.1035 0Z" fill="#F4F4F4"/>
    <path d="M19.4535 7.03553H15.6643V20.7763H18.6562V16.1445L19.3172 16.1818C19.9567 16.1709 20.5902 16.0578 21.193 15.8468C21.7215 15.6673 22.2077 15.3839 22.6223 15.0138C23.0409 14.6602 23.3705 14.2153 23.5848 13.7141C23.8756 12.8797 23.9794 11.9928 23.8892 11.1148C23.8711 10.4876 23.7598 9.86649 23.5587 9.27128C23.3757 8.84161 23.1041 8.45427 22.7612 8.13392C22.4183 7.81357 22.0116 7.56721 21.567 7.41054C21.1808 7.27179 20.7817 7.17111 20.3754 7.10996C20.0694 7.06333 19.7603 7.03846 19.4506 7.03553M18.9027 13.6025H18.6446V9.36574H19.2071C19.454 9.34816 19.7018 9.38559 19.9322 9.47528C20.1625 9.56496 20.3695 9.70461 20.5378 9.88389C20.8866 10.3448 21.073 10.9059 21.0683 11.4813C21.0683 12.1855 21.0683 12.8238 20.4247 13.2733C19.9611 13.5251 19.4333 13.6385 18.9056 13.5996M29.5455 6.99832C29.2237 6.99832 28.9106 7.02122 28.6902 7.02981L28.0089 7.04698H25.7476V20.7878H28.409C29.4261 20.8153 30.4388 20.6451 31.3893 20.2868C32.1545 19.9872 32.832 19.5041 33.3608 18.8813C33.875 18.2528 34.244 17.521 34.4422 16.7371C34.6699 15.8493 34.781 14.9363 34.7727 14.0204C34.8289 12.9388 34.7441 11.8545 34.5204 10.7942C34.3082 10.0137 33.9106 9.29444 33.3608 8.69588C32.9294 8.21256 32.4013 7.82268 31.8097 7.55081C31.3017 7.3187 30.7674 7.14762 30.2181 7.04126C29.9997 7.00563 29.7784 6.98934 29.5571 6.99259M29.0294 18.2629H28.7395V9.4917H28.7772C29.3749 9.4238 29.9796 9.53029 30.5167 9.79801C30.91 10.1081 31.2305 10.4988 31.456 10.9431C31.6994 11.4106 31.8397 11.9238 31.8677 12.4488C31.8938 13.0786 31.8677 13.5939 31.8677 14.0204C31.8795 14.5118 31.8475 15.0032 31.772 15.489C31.6827 15.9878 31.5175 16.4703 31.2821 16.9203C31.0156 17.3387 30.6556 17.6913 30.2297 17.9509C29.872 18.1793 29.4484 18.2859 29.0236 18.2543M43.7427 7.04698H36.6977V20.7878H39.678V15.3373H43.447V12.7838H39.678V9.60048H43.7369V7.04698" fill="white"/>
</svg>
