<svg xmlns="http://www.w3.org/2000/svg" width="20" height="18" viewBox="0 0 20 18" fill="none">
    <path d="M11.8728 1.21266C12.2475 0.26244 13.5923 0.26245 13.9671 1.21267L15.1284 4.15732C15.2428 4.44743 15.4725 4.67707 15.7626 4.79148L18.7072 5.95284C19.6575 6.3276 19.6575 7.6724 18.7072 8.04716L15.7626 9.2085C15.4725 9.3229 15.2428 9.5526 15.1284 9.8427L13.9671 12.7873C13.5923 13.7376 12.2475 13.7376 11.8728 12.7873L10.7114 9.8427C10.597 9.5526 10.3674 9.3229 10.0772 9.2085L7.13258 8.04716C6.18236 7.6724 6.18237 6.3276 7.13259 5.95284L10.0772 4.79148C10.3674 4.67707 10.597 4.44743 10.7114 4.15732L11.8728 1.21266Z" fill="#1C274C"/>
    <path opacity="0.5" d="M3.92447 9.38376C4.13047 8.86166 4.86947 8.86166 5.07548 9.38376L5.97608 11.6675C6.03898 11.827 6.16517 11.9532 6.32467 12.0161L8.60837 12.9167C9.13047 13.1227 9.13047 13.8617 8.60837 14.0677L6.32467 14.9683C6.16517 15.0312 6.03898 15.1574 5.97608 15.3169L5.07548 17.6006C4.86947 18.1227 4.13047 18.1227 3.92447 17.6006L3.02387 15.3169C2.96097 15.1574 2.83477 15.0312 2.67527 14.9683L0.391575 14.0677C-0.130525 13.8617 -0.130525 13.1227 0.391575 12.9167L2.67527 12.0161C2.83477 11.9532 2.96097 11.827 3.02387 11.6675L3.92447 9.38376Z" fill="#1C274C"/>
    <path opacity="0.5" d="M4.27123 0.665768C4.35844 0.444744 4.67129 0.444744 4.75849 0.665768L5.13975 1.63254C5.16638 1.70006 5.2198 1.75349 5.28732 1.78011L6.2541 2.16137C6.47512 2.24858 6.47512 2.56142 6.2541 2.64863L5.28732 3.02989C5.2198 3.05651 5.16638 3.10994 5.13975 3.17746L4.75849 4.14423C4.67129 4.36526 4.35844 4.36526 4.27123 4.14423L3.88998 3.17746C3.86335 3.10994 3.80992 3.05651 3.7424 3.02989L2.77563 2.64863C2.55461 2.56142 2.55461 2.24858 2.77563 2.16137L3.7424 1.78011C3.80992 1.75349 3.86335 1.70006 3.88998 1.63254L4.27123 0.665768Z" fill="#1C274C"/>
</svg>
