<svg xmlns="http://www.w3.org/2000/svg" width="40" height="37" viewBox="0 0 40 37" fill="none">
    <path d="M26.2917 3.8223C26.7241 2.72589 28.2758 2.7259 28.7082 3.82231L30.0483 7.21998C30.1803 7.55472 30.4453 7.81969 30.78 7.9517L34.1776 9.29173C35.2741 9.72414 35.2741 11.2758 34.1776 11.7082L30.78 13.0483C30.4453 13.1803 30.1803 13.4453 30.0483 13.78L28.7082 17.1776C28.2758 18.2741 26.7241 18.2741 26.2917 17.1776L24.9517 13.78C24.8197 13.4453 24.5547 13.1803 24.22 13.0483L20.8223 11.7082C19.7259 11.2758 19.7259 9.72414 20.8223 9.29173L24.22 7.9517C24.5547 7.81969 24.8197 7.55472 24.9517 7.21998L26.2917 3.8223Z" fill="#1C274C"/>
    <path opacity="0.5" d="M8.08339 18.2948C8.5077 17.2194 10.0298 17.2194 10.4542 18.2948L12.3092 22.9986C12.4387 23.3272 12.6986 23.5871 13.0272 23.7167L17.731 25.5717C18.8064 25.996 18.8064 27.5181 17.731 27.9424L13.0272 29.7974C12.6986 29.927 12.4387 30.1869 12.3092 30.5155L10.4542 35.2193C10.0298 36.2947 8.5077 36.2947 8.08339 35.2193L6.22839 30.5155C6.09883 30.1869 5.83889 29.927 5.51037 29.7974L0.806542 27.9424C-0.268847 27.5181 -0.268847 25.996 0.806542 25.5717L5.51037 23.7167C5.83889 23.5871 6.09883 23.3272 6.22839 22.9986L8.08339 18.2948Z" fill="#1C274C"/>
    <path opacity="0.5" d="M8.79772 0.341438C8.97734 -0.113813 9.62172 -0.113813 9.80135 0.341438L10.5866 2.33273C10.6415 2.47181 10.7515 2.58185 10.8906 2.6367L12.8819 3.42199C13.3371 3.60161 13.3371 4.24599 12.8819 4.42561L10.8906 5.2109C10.7515 5.26575 10.6415 5.37579 10.5866 5.51487L9.80135 7.50616C9.62172 7.96142 8.97734 7.96142 8.79772 7.50616L8.01243 5.51487C7.95759 5.37579 7.84754 5.26575 7.70847 5.2109L5.71717 4.42561C5.26192 4.24599 5.26192 3.60161 5.71717 3.42199L7.70847 2.6367C7.84754 2.58185 7.95759 2.47181 8.01243 2.33273L8.79772 0.341438Z" fill="#1C274C"/>
</svg>
